  0
SECTION
  2
HEADER
  9
$EXTMIN
 10
-0.127000
 20
-0.139000
  9
$EXTMAX
 10
0.605000
 20
0.805000
  9
$LIMMIN
 10
-0.127000
 20
-0.139000
  9
$LIMMAX
 10
0.605000
 20
0.805000
  9
$FILLMODE
 70
  1
  0
ENDSEC
  0
SECTION
  2
TABLES
  0
TABLE
  2
LTYPE
 70
  1
  0
LTYPE
  2
CONTINUOUS
 70
 64
  3
Solid line
 72
 65
 73
  0
 40
0.0
  0
ENDTAB
  0
TABLE
  2
LAYER
 70
 1
  0
LAYER
  2
0
 70
  0
 62
7
  6
CONTINUOUS
  0
LAYER
  2
gg1
 70
  0
 62
1
  6
CONTINUOUS
  0
ENDTAB
  0
TABLE
  2
STYLE
 70
  1
  0
STYLE
  2
STANDARD
 70
  0
 40
0.0
 41
1.0
 50
0.0
 71
  0
 42
0.2
  3
txt
  4

  0
ENDTAB
  0
ENDSEC
  0
SECTION
  2
BLOCKS
  0
BLOCK
  8
0
  2
D10
 70
64
 10
0.0
 20
0.0
  3
D10
  0
CIRCLE
  8
0
 10
0.000000
 20
0.000000
 40
0.005000
 0
ENDBLK
  8
0
  0
BLOCK
  8
0
  2
D11
 70
64
 10
0.0
 20
0.0
  3
D11
  0
CIRCLE
  8
0
 10
0.000000
 20
0.000000
 40
0.003950
 0
ENDBLK
  8
0
  0
BLOCK
  8
0
  2
D12
 70
64
 10
0.0
 20
0.0
  3
D12
  0
CIRCLE
  8
0
 10
0.000000
 20
0.000000
 40
0.003000
 0
ENDBLK
  8
0
  0
BLOCK
  8
0
  2
D13
 70
64
 10
0.0
 20
0.0
  3
D13
  0
CIRCLE
  8
0
 10
0.000000
 20
0.000000
 40
0.001000
 0
ENDBLK
  8
0
  0
ENDSEC
  0
SECTION
  2
ENTITIES
  0
POLYLINE
  8
gg1
 62
1
 40
0.000000
 41
0.000000
 66
  1
  0
VERTEX
  8
gg1
 10
0.600000
 20
-0.110000
  0
VERTEX
  8
gg1
 10
0.600000
 20
-0.013900
  0
SEQEND
  8
gg1
  0
POLYLINE
  8
gg1
 62
1
 40
0.000000
 41
0.000000
 66
  1
  0
VERTEX
  8
gg1
 10
0.000000
 20
-0.110000
  0
VERTEX
  8
gg1
 10
0.000000
 20
-0.013900
  0
SEQEND
  8
gg1
  0
POLYLINE
  8
gg1
 62
1
 40
0.000000
 41
0.000000
 66
  1
  0
VERTEX
  8
gg1
 10
0.455000
 20
-0.100000
  0
VERTEX
  8
gg1
 10
0.600000
 20
-0.100000
  0
SEQEND
  8
gg1
  0
POLYLINE
  8
gg1
 62
1
 40
0.000000
 41
0.000000
 66
  1
  0
VERTEX
  8
gg1
 10
0.000000
 20
-0.100000
  0
VERTEX
  8
gg1
 10
0.113000
 20
-0.100000
  0
SEQEND
  8
gg1
  0
POLYLINE
  8
gg1
 62
1
 40
0.000000
 41
0.000000
 66
  1
  0
VERTEX
  8
gg1
 10
0.540000
 20
-0.080000
  0
VERTEX
  8
gg1
 10
0.600000
 20
-0.100000
  0
SEQEND
  8
gg1
  0
POLYLINE
  8
gg1
 62
1
 40
0.000000
 41
0.000000
 66
  1
  0
VERTEX
  8
gg1
 10
0.540000
 20
-0.120000
  0
VERTEX
  8
gg1
 10
0.600000
 20
-0.100000
  0
SEQEND
  8
gg1
  0
POLYLINE
  8
gg1
 62
1
 40
0.000000
 41
0.000000
 66
  1
  0
VERTEX
  8
gg1
 10
0.000000
 20
-0.100000
  0
VERTEX
  8
gg1
 10
0.060000
 20
-0.120000
  0
SEQEND
  8
gg1
  0
POLYLINE
  8
gg1
 62
1
 40
0.000000
 41
0.000000
 66
  1
  0
VERTEX
  8
gg1
 10
0.000000
 20
-0.100000
  0
VERTEX
  8
gg1
 10
0.060000
 20
-0.080000
  0
SEQEND
  8
gg1
  0
POLYLINE
  8
gg1
 62
1
 40
0.000000
 41
0.000000
 66
  1
  0
VERTEX
  8
gg1
 10
-0.110000
 20
0.800000
  0
VERTEX
  8
gg1
 10
-0.013900
 20
0.800000
  0
SEQEND
  8
gg1
  0
POLYLINE
  8
gg1
 62
1
 40
0.000000
 41
0.000000
 66
  1
  0
VERTEX
  8
gg1
 10
-0.110000
 20
0.000000
  0
VERTEX
  8
gg1
 10
-0.013900
 20
0.000000
  0
SEQEND
  8
gg1
  0
POLYLINE
  8
gg1
 62
1
 40
0.000000
 41
0.000000
 66
  1
  0
VERTEX
  8
gg1
 10
-0.100000
 20
0.554900
  0
VERTEX
  8
gg1
 10
-0.100000
 20
0.800000
  0
SEQEND
  8
gg1
  0
POLYLINE
  8
gg1
 62
1
 40
0.000000
 41
0.000000
 66
  1
  0
VERTEX
  8
gg1
 10
-0.100000
 20
0.000000
  0
VERTEX
  8
gg1
 10
-0.100000
 20
0.213000
  0
SEQEND
  8
gg1
  0
POLYLINE
  8
gg1
 62
1
 40
0.000000
 41
0.000000
 66
  1
  0
VERTEX
  8
gg1
 10
-0.120000
 20
0.740000
  0
VERTEX
  8
gg1
 10
-0.100000
 20
0.800000
  0
VERTEX
  8
gg1
 10
-0.080000
 20
0.740000
  0
SEQEND
  8
gg1
  0
POLYLINE
  8
gg1
 62
1
 40
0.000000
 41
0.000000
 66
  1
  0
VERTEX
  8
gg1
 10
-0.100000
 20
0.000000
  0
VERTEX
  8
gg1
 10
-0.080000
 20
0.060000
  0
SEQEND
  8
gg1
  0
POLYLINE
  8
gg1
 62
1
 40
0.000000
 41
0.000000
 66
  1
  0
VERTEX
  8
gg1
 10
-0.120000
 20
0.060000
  0
VERTEX
  8
gg1
 10
-0.100000
 20
0.000000
  0
SEQEND
  8
gg1
  0
POLYLINE
  8
gg1
 62
1
 40
0.000000
 41
0.000000
 66
  1
  0
VERTEX
  8
gg1
 10
0.000000
 20
0.000000
  0
VERTEX
  8
gg1
 10
0.600000
 20
0.000000
  0
VERTEX
  8
gg1
 10
0.600000
 20
0.800000
  0
SEQEND
  8
gg1
  0
POLYLINE
  8
gg1
 62
1
 40
0.000000
 41
0.000000
 66
  1
  0
VERTEX
  8
gg1
 10
0.000000
 20
0.800000
  0
VERTEX
  8
gg1
 10
0.600000
 20
0.800000
  0
SEQEND
  8
gg1
  0
POLYLINE
  8
gg1
 62
1
 40
0.000000
 41
0.000000
 66
  1
  0
VERTEX
  8
gg1
 10
0.000000
 20
0.000000
  0
VERTEX
  8
gg1
 10
0.000000
 20
0.800000
  0
SEQEND
  8
gg1
  0
POLYLINE
  8
gg1
 62
1
 40
0.000000
 41
0.000000
 66
  1
  0
VERTEX
  8
gg1
 10
0.169000
 20
-0.076000
  0
VERTEX
  8
gg1
 10
0.149000
 20
-0.086000
  0
VERTEX
  8
gg1
 10
0.129100
 20
-0.106000
  0
VERTEX
  8
gg1
 10
0.129100
 20
-0.126000
  0
VERTEX
  8
gg1
 10
0.139000
 20
-0.136000
  0
VERTEX
  8
gg1
 10
0.159000
 20
-0.136000
  0
VERTEX
  8
gg1
 10
0.169000
 20
-0.126000
  0
VERTEX
  8
gg1
 10
0.169000
 20
-0.116000
  0
VERTEX
  8
gg1
 10
0.159000
 20
-0.106000
  0
VERTEX
  8
gg1
 10
0.129100
 20
-0.106000
  0
SEQEND
  8
gg1
  0
POLYLINE
  8
gg1
 62
1
 40
0.000000
 41
0.000000
 66
  1
  0
VERTEX
  8
gg1
 10
0.189000
 20
-0.086000
  0
VERTEX
  8
gg1
 10
0.199000
 20
-0.076000
  0
VERTEX
  8
gg1
 10
0.219000
 20
-0.076000
  0
VERTEX
  8
gg1
 10
0.229000
 20
-0.086000
  0
VERTEX
  8
gg1
 10
0.229000
 20
-0.126000
  0
VERTEX
  8
gg1
 10
0.219000
 20
-0.136000
  0
VERTEX
  8
gg1
 10
0.199000
 20
-0.136000
  0
VERTEX
  8
gg1
 10
0.189000
 20
-0.126000
  0
VERTEX
  8
gg1
 10
0.189000
 20
-0.086000
  0
SEQEND
  8
gg1
  0
POLYLINE
  8
gg1
 62
1
 40
0.000000
 41
0.000000
 66
  1
  0
VERTEX
  8
gg1
 10
0.249000
 20
-0.086000
  0
VERTEX
  8
gg1
 10
0.259000
 20
-0.076000
  0
VERTEX
  8
gg1
 10
0.279000
 20
-0.076000
  0
VERTEX
  8
gg1
 10
0.289000
 20
-0.086000
  0
VERTEX
  8
gg1
 10
0.289000
 20
-0.126000
  0
VERTEX
  8
gg1
 10
0.279000
 20
-0.136000
  0
VERTEX
  8
gg1
 10
0.259000
 20
-0.136000
  0
VERTEX
  8
gg1
 10
0.249000
 20
-0.126000
  0
VERTEX
  8
gg1
 10
0.249000
 20
-0.086000
  0
SEQEND
  8
gg1
  0
POLYLINE
  8
gg1
 62
1
 40
0.000000
 41
0.000000
 66
  1
  0
VERTEX
  8
gg1
 10
0.309000
 20
-0.136000
  0
VERTEX
  8
gg1
 10
0.309000
 20
-0.096000
  0
VERTEX
  8
gg1
 10
0.319000
 20
-0.096000
  0
VERTEX
  8
gg1
 10
0.329000
 20
-0.106000
  0
VERTEX
  8
gg1
 10
0.329000
 20
-0.136000
  0
VERTEX
  8
gg1
 10
0.329000
 20
-0.106000
  0
VERTEX
  8
gg1
 10
0.339000
 20
-0.096000
  0
VERTEX
  8
gg1
 10
0.349000
 20
-0.106000
  0
VERTEX
  8
gg1
 10
0.349000
 20
-0.136000
  0
SEQEND
  8
gg1
  0
POLYLINE
  8
gg1
 62
1
 40
0.000000
 41
0.000000
 66
  1
  0
VERTEX
  8
gg1
 10
0.369000
 20
-0.136000
  0
VERTEX
  8
gg1
 10
0.389000
 20
-0.136000
  0
VERTEX
  8
gg1
 10
0.379000
 20
-0.136000
  0
VERTEX
  8
gg1
 10
0.379000
 20
-0.096000
  0
VERTEX
  8
gg1
 10
0.369000
 20
-0.096000
  0
SEQEND
  8
gg1
  0
POLYLINE
  8
gg1
 62
1
 40
0.000000
 41
0.000000
 66
  1
  0
VERTEX
  8
gg1
 10
0.419000
 20
-0.136000
  0
VERTEX
  8
gg1
 10
0.439000
 20
-0.136000
  0
VERTEX
  8
gg1
 10
0.429000
 20
-0.136000
  0
VERTEX
  8
gg1
 10
0.429000
 20
-0.076000
  0
VERTEX
  8
gg1
 10
0.419000
 20
-0.076000
  0
SEQEND
  8
gg1
  0
POLYLINE
  8
gg1
 62
1
 40
0.000000
 41
0.000000
 66
  1
  0
VERTEX
  8
gg1
 10
-0.114000
 20
0.229000
  0
VERTEX
  8
gg1
 10
-0.124000
 20
0.239000
  0
VERTEX
  8
gg1
 10
-0.124000
 20
0.259000
  0
VERTEX
  8
gg1
 10
-0.114000
 20
0.269000
  0
VERTEX
  8
gg1
 10
-0.104000
 20
0.269000
  0
VERTEX
  8
gg1
 10
-0.094000
 20
0.259000
  0
VERTEX
  8
gg1
 10
-0.084000
 20
0.269000
  0
VERTEX
  8
gg1
 10
-0.074000
 20
0.269000
  0
VERTEX
  8
gg1
 10
-0.064000
 20
0.259000
  0
VERTEX
  8
gg1
 10
-0.064000
 20
0.239000
  0
VERTEX
  8
gg1
 10
-0.074000
 20
0.229000
  0
VERTEX
  8
gg1
 10
-0.084000
 20
0.229000
  0
VERTEX
  8
gg1
 10
-0.094000
 20
0.239000
  0
VERTEX
  8
gg1
 10
-0.104000
 20
0.229000
  0
VERTEX
  8
gg1
 10
-0.114000
 20
0.229000
  0
SEQEND
  8
gg1
  0
POLYLINE
  8
gg1
 62
1
 40
0.000000
 41
0.000000
 66
  1
  0
VERTEX
  8
gg1
 10
-0.094000
 20
0.239000
  0
VERTEX
  8
gg1
 10
-0.094000
 20
0.259000
  0
SEQEND
  8
gg1
  0
POLYLINE
  8
gg1
 62
1
 40
0.000000
 41
0.000000
 66
  1
  0
VERTEX
  8
gg1
 10
-0.114000
 20
0.289000
  0
VERTEX
  8
gg1
 10
-0.124000
 20
0.299000
  0
VERTEX
  8
gg1
 10
-0.124000
 20
0.319000
  0
VERTEX
  8
gg1
 10
-0.114000
 20
0.329000
  0
VERTEX
  8
gg1
 10
-0.074000
 20
0.329000
  0
VERTEX
  8
gg1
 10
-0.064000
 20
0.319000
  0
VERTEX
  8
gg1
 10
-0.064000
 20
0.299000
  0
VERTEX
  8
gg1
 10
-0.074000
 20
0.289000
  0
VERTEX
  8
gg1
 10
-0.114000
 20
0.289000
  0
SEQEND
  8
gg1
  0
POLYLINE
  8
gg1
 62
1
 40
0.000000
 41
0.000000
 66
  1
  0
VERTEX
  8
gg1
 10
-0.114000
 20
0.349000
  0
VERTEX
  8
gg1
 10
-0.124000
 20
0.359000
  0
VERTEX
  8
gg1
 10
-0.124000
 20
0.379000
  0
VERTEX
  8
gg1
 10
-0.114000
 20
0.389000
  0
VERTEX
  8
gg1
 10
-0.074000
 20
0.389000
  0
VERTEX
  8
gg1
 10
-0.064000
 20
0.379000
  0
VERTEX
  8
gg1
 10
-0.064000
 20
0.359000
  0
VERTEX
  8
gg1
 10
-0.074000
 20
0.349000
  0
VERTEX
  8
gg1
 10
-0.114000
 20
0.349000
  0
SEQEND
  8
gg1
  0
POLYLINE
  8
gg1
 62
1
 40
0.000000
 41
0.000000
 66
  1
  0
VERTEX
  8
gg1
 10
-0.064000
 20
0.409000
  0
VERTEX
  8
gg1
 10
-0.104000
 20
0.409000
  0
VERTEX
  8
gg1
 10
-0.104000
 20
0.419000
  0
VERTEX
  8
gg1
 10
-0.094000
 20
0.429000
  0
VERTEX
  8
gg1
 10
-0.064000
 20
0.429000
  0
VERTEX
  8
gg1
 10
-0.094000
 20
0.429000
  0
VERTEX
  8
gg1
 10
-0.104000
 20
0.439000
  0
VERTEX
  8
gg1
 10
-0.094000
 20
0.449000
  0
VERTEX
  8
gg1
 10
-0.064000
 20
0.449000
  0
SEQEND
  8
gg1
  0
POLYLINE
  8
gg1
 62
1
 40
0.000000
 41
0.000000
 66
  1
  0
VERTEX
  8
gg1
 10
-0.064000
 20
0.469000
  0
VERTEX
  8
gg1
 10
-0.064000
 20
0.489000
  0
VERTEX
  8
gg1
 10
-0.064000
 20
0.479000
  0
VERTEX
  8
gg1
 10
-0.104000
 20
0.479000
  0
VERTEX
  8
gg1
 10
-0.104000
 20
0.469000
  0
SEQEND
  8
gg1
  0
POLYLINE
  8
gg1
 62
1
 40
0.000000
 41
0.000000
 66
  1
  0
VERTEX
  8
gg1
 10
-0.064000
 20
0.519000
  0
VERTEX
  8
gg1
 10
-0.064000
 20
0.539000
  0
VERTEX
  8
gg1
 10
-0.064000
 20
0.529000
  0
VERTEX
  8
gg1
 10
-0.124000
 20
0.529000
  0
VERTEX
  8
gg1
 10
-0.124000
 20
0.519000
  0
SEQEND
  8
gg1
  0
POLYLINE
  8
gg1
 62
1
 40
0.000000
 41
0.000000
 66
  1
  0
VERTEX
  8
gg1
 10
0.530000
 20
0.050000
  0
VERTEX
  8
gg1
 10
0.570000
 20
0.050000
  0
SEQEND
  8
gg1
  0
POLYLINE
  8
gg1
 62
1
 40
0.000000
 41
0.000000
 66
  1
  0
VERTEX
  8
gg1
 10
0.550000
 20
0.030000
  0
VERTEX
  8
gg1
 10
0.550000
 20
0.070000
  0
SEQEND
  8
gg1
  0
POLYLINE
  8
gg1
 62
1
 40
0.000000
 41
0.000000
 66
  1
  0
VERTEX
  8
gg1
 10
0.530000
 20
0.450000
  0
VERTEX
  8
gg1
 10
0.570000
 20
0.450000
  0
SEQEND
  8
gg1
  0
POLYLINE
  8
gg1
 62
1
 40
0.000000
 41
0.000000
 66
  1
  0
VERTEX
  8
gg1
 10
0.550000
 20
0.430000
  0
VERTEX
  8
gg1
 10
0.550000
 20
0.470000
  0
SEQEND
  8
gg1
  0
POLYLINE
  8
gg1
 62
1
 40
0.000000
 41
0.000000
 66
  1
  0
VERTEX
  8
gg1
 10
0.530000
 20
0.150000
  0
VERTEX
  8
gg1
 10
0.570000
 20
0.150000
  0
SEQEND
  8
gg1
  0
POLYLINE
  8
gg1
 62
1
 40
0.000000
 41
0.000000
 66
  1
  0
VERTEX
  8
gg1
 10
0.550000
 20
0.130000
  0
VERTEX
  8
gg1
 10
0.550000
 20
0.170000
  0
SEQEND
  8
gg1
  0
POLYLINE
  8
gg1
 62
1
 40
0.000000
 41
0.000000
 66
  1
  0
VERTEX
  8
gg1
 10
0.530000
 20
0.250000
  0
VERTEX
  8
gg1
 10
0.570000
 20
0.250000
  0
SEQEND
  8
gg1
  0
POLYLINE
  8
gg1
 62
1
 40
0.000000
 41
0.000000
 66
  1
  0
VERTEX
  8
gg1
 10
0.550000
 20
0.230000
  0
VERTEX
  8
gg1
 10
0.550000
 20
0.270000
  0
SEQEND
  8
gg1
  0
POLYLINE
  8
gg1
 62
1
 40
0.000000
 41
0.000000
 66
  1
  0
VERTEX
  8
gg1
 10
0.530000
 20
0.350000
  0
VERTEX
  8
gg1
 10
0.570000
 20
0.350000
  0
SEQEND
  8
gg1
  0
POLYLINE
  8
gg1
 62
1
 40
0.000000
 41
0.000000
 66
  1
  0
VERTEX
  8
gg1
 10
0.550000
 20
0.330000
  0
VERTEX
  8
gg1
 10
0.550000
 20
0.370000
  0
SEQEND
  8
gg1
  0
POLYLINE
  8
gg1
 62
1
 40
0.000000
 41
0.000000
 66
  1
  0
VERTEX
  8
gg1
 10
0.530000
 20
0.550000
  0
VERTEX
  8
gg1
 10
0.570000
 20
0.550000
  0
SEQEND
  8
gg1
  0
POLYLINE
  8
gg1
 62
1
 40
0.000000
 41
0.000000
 66
  1
  0
VERTEX
  8
gg1
 10
0.550000
 20
0.530000
  0
VERTEX
  8
gg1
 10
0.550000
 20
0.570000
  0
SEQEND
  8
gg1
  0
POLYLINE
  8
gg1
 62
1
 40
0.000000
 41
0.000000
 66
  1
  0
VERTEX
  8
gg1
 10
0.530000
 20
0.650000
  0
VERTEX
  8
gg1
 10
0.570000
 20
0.650000
  0
SEQEND
  8
gg1
  0
POLYLINE
  8
gg1
 62
1
 40
0.000000
 41
0.000000
 66
  1
  0
VERTEX
  8
gg1
 10
0.550000
 20
0.630000
  0
VERTEX
  8
gg1
 10
0.550000
 20
0.670000
  0
SEQEND
  8
gg1
  0
POLYLINE
  8
gg1
 62
1
 40
0.000000
 41
0.000000
 66
  1
  0
VERTEX
  8
gg1
 10
0.530000
 20
0.750000
  0
VERTEX
  8
gg1
 10
0.570000
 20
0.750000
  0
SEQEND
  8
gg1
  0
POLYLINE
  8
gg1
 62
1
 40
0.000000
 41
0.000000
 66
  1
  0
VERTEX
  8
gg1
 10
0.550000
 20
0.730000
  0
VERTEX
  8
gg1
 10
0.550000
 20
0.770000
  0
SEQEND
  8
gg1
  0
POLYLINE
  8
gg1
 62
1
 40
0.000000
 41
0.000000
 66
  1
  0
VERTEX
  8
gg1
 10
0.030000
 20
0.350000
  0
VERTEX
  8
gg1
 10
0.070000
 20
0.350000
  0
SEQEND
  8
gg1
  0
POLYLINE
  8
gg1
 62
1
 40
0.000000
 41
0.000000
 66
  1
  0
VERTEX
  8
gg1
 10
0.050000
 20
0.330000
  0
VERTEX
  8
gg1
 10
0.050000
 20
0.370000
  0
SEQEND
  8
gg1
  0
POLYLINE
  8
gg1
 62
1
 40
0.000000
 41
0.000000
 66
  1
  0
VERTEX
  8
gg1
 10
0.030000
 20
0.250000
  0
VERTEX
  8
gg1
 10
0.070000
 20
0.250000
  0
SEQEND
  8
gg1
  0
POLYLINE
  8
gg1
 62
1
 40
0.000000
 41
0.000000
 66
  1
  0
VERTEX
  8
gg1
 10
0.050000
 20
0.230000
  0
VERTEX
  8
gg1
 10
0.050000
 20
0.270000
  0
SEQEND
  8
gg1
  0
POLYLINE
  8
gg1
 62
1
 40
0.000000
 41
0.000000
 66
  1
  0
VERTEX
  8
gg1
 10
0.030000
 20
0.450000
  0
VERTEX
  8
gg1
 10
0.070000
 20
0.450000
  0
SEQEND
  8
gg1
  0
POLYLINE
  8
gg1
 62
1
 40
0.000000
 41
0.000000
 66
  1
  0
VERTEX
  8
gg1
 10
0.050000
 20
0.430000
  0
VERTEX
  8
gg1
 10
0.050000
 20
0.470000
  0
SEQEND
  8
gg1
  0
POLYLINE
  8
gg1
 62
1
 40
0.000000
 41
0.000000
 66
  1
  0
VERTEX
  8
gg1
 10
0.030000
 20
0.550000
  0
VERTEX
  8
gg1
 10
0.070000
 20
0.550000
  0
SEQEND
  8
gg1
  0
POLYLINE
  8
gg1
 62
1
 40
0.000000
 41
0.000000
 66
  1
  0
VERTEX
  8
gg1
 10
0.050000
 20
0.530000
  0
VERTEX
  8
gg1
 10
0.050000
 20
0.570000
  0
SEQEND
  8
gg1
  0
POLYLINE
  8
gg1
 62
1
 40
0.000000
 41
0.000000
 66
  1
  0
VERTEX
  8
gg1
 10
0.030000
 20
0.150000
  0
VERTEX
  8
gg1
 10
0.070000
 20
0.150000
  0
SEQEND
  8
gg1
  0
POLYLINE
  8
gg1
 62
1
 40
0.000000
 41
0.000000
 66
  1
  0
VERTEX
  8
gg1
 10
0.050000
 20
0.130000
  0
VERTEX
  8
gg1
 10
0.050000
 20
0.170000
  0
SEQEND
  8
gg1
  0
POLYLINE
  8
gg1
 62
1
 40
0.000000
 41
0.000000
 66
  1
  0
VERTEX
  8
gg1
 10
0.030000
 20
0.050000
  0
VERTEX
  8
gg1
 10
0.070000
 20
0.050000
  0
SEQEND
  8
gg1
  0
POLYLINE
  8
gg1
 62
1
 40
0.000000
 41
0.000000
 66
  1
  0
VERTEX
  8
gg1
 10
0.050000
 20
0.030000
  0
VERTEX
  8
gg1
 10
0.050000
 20
0.070000
  0
SEQEND
  8
gg1
  0
POLYLINE
  8
gg1
 62
1
 40
0.000000
 41
0.000000
 66
  1
  0
VERTEX
  8
gg1
 10
0.030000
 20
0.650000
  0
VERTEX
  8
gg1
 10
0.070000
 20
0.650000
  0
SEQEND
  8
gg1
  0
POLYLINE
  8
gg1
 62
1
 40
0.000000
 41
0.000000
 66
  1
  0
VERTEX
  8
gg1
 10
0.050000
 20
0.630000
  0
VERTEX
  8
gg1
 10
0.050000
 20
0.670000
  0
SEQEND
  8
gg1
  0
POLYLINE
  8
gg1
 62
1
 40
0.000000
 41
0.000000
 66
  1
  0
VERTEX
  8
gg1
 10
0.030000
 20
0.750000
  0
VERTEX
  8
gg1
 10
0.070000
 20
0.750000
  0
SEQEND
  8
gg1
  0
POLYLINE
  8
gg1
 62
1
 40
0.000000
 41
0.000000
 66
  1
  0
VERTEX
  8
gg1
 10
0.050000
 20
0.730000
  0
VERTEX
  8
gg1
 10
0.050000
 20
0.770000
  0
SEQEND
  8
gg1
  0
POLYLINE
  8
gg1
 62
1
 40
0.000000
 41
0.000000
 66
  1
  0
VERTEX
  8
gg1
 10
0.492500
 20
0.392000
  0
VERTEX
  8
gg1
 10
0.507500
 20
0.392000
  0
SEQEND
  8
gg1
  0
POLYLINE
  8
gg1
 62
1
 40
0.000000
 41
0.000000
 66
  1
  0
VERTEX
  8
gg1
 10
0.500000
 20
0.384500
  0
VERTEX
  8
gg1
 10
0.500000
 20
0.399500
  0
SEQEND
  8
gg1
  0
POLYLINE
  8
gg1
 62
1
 40
0.000000
 41
0.000000
 66
  1
  0
VERTEX
  8
gg1
 10
0.349100
 20
0.438400
  0
VERTEX
  8
gg1
 10
0.364100
 20
0.438400
  0
SEQEND
  8
gg1
  0
POLYLINE
  8
gg1
 62
1
 40
0.000000
 41
0.000000
 66
  1
  0
VERTEX
  8
gg1
 10
0.356600
 20
0.430900
  0
VERTEX
  8
gg1
 10
0.356600
 20
0.445900
  0
SEQEND
  8
gg1
  0
POLYLINE
  8
gg1
 62
1
 40
0.000000
 41
0.000000
 66
  1
  0
VERTEX
  8
gg1
 10
0.417500
 20
0.595000
  0
VERTEX
  8
gg1
 10
0.432500
 20
0.595000
  0
SEQEND
  8
gg1
  0
POLYLINE
  8
gg1
 62
1
 40
0.000000
 41
0.000000
 66
  1
  0
VERTEX
  8
gg1
 10
0.425000
 20
0.587500
  0
VERTEX
  8
gg1
 10
0.425000
 20
0.602500
  0
SEQEND
  8
gg1
  0
POLYLINE
  8
gg1
 62
1
 40
0.000000
 41
0.000000
 66
  1
  0
VERTEX
  8
gg1
 10
0.417500
 20
0.755000
  0
VERTEX
  8
gg1
 10
0.432500
 20
0.755000
  0
SEQEND
  8
gg1
  0
POLYLINE
  8
gg1
 62
1
 40
0.000000
 41
0.000000
 66
  1
  0
VERTEX
  8
gg1
 10
0.425000
 20
0.747500
  0
VERTEX
  8
gg1
 10
0.425000
 20
0.762500
  0
SEQEND
  8
gg1
  0
POLYLINE
  8
gg1
 62
1
 40
0.000000
 41
0.000000
 66
  1
  0
VERTEX
  8
gg1
 10
0.227500
 20
0.225000
  0
VERTEX
  8
gg1
 10
0.242500
 20
0.225000
  0
SEQEND
  8
gg1
  0
POLYLINE
  8
gg1
 62
1
 40
0.000000
 41
0.000000
 66
  1
  0
VERTEX
  8
gg1
 10
0.235000
 20
0.217500
  0
VERTEX
  8
gg1
 10
0.235000
 20
0.232500
  0
SEQEND
  8
gg1
  0
POLYLINE
  8
gg1
 62
1
 40
0.000000
 41
0.000000
 66
  1
  0
VERTEX
  8
gg1
 10
0.257500
 20
0.265000
  0
VERTEX
  8
gg1
 10
0.272500
 20
0.265000
  0
SEQEND
  8
gg1
  0
POLYLINE
  8
gg1
 62
1
 40
0.000000
 41
0.000000
 66
  1
  0
VERTEX
  8
gg1
 10
0.265000
 20
0.257500
  0
VERTEX
  8
gg1
 10
0.265000
 20
0.272500
  0
SEQEND
  8
gg1
  0
POLYLINE
  8
gg1
 62
1
 40
0.000000
 41
0.000000
 66
  1
  0
VERTEX
  8
gg1
 10
0.227500
 20
0.305000
  0
VERTEX
  8
gg1
 10
0.242500
 20
0.305000
  0
SEQEND
  8
gg1
  0
POLYLINE
  8
gg1
 62
1
 40
0.000000
 41
0.000000
 66
  1
  0
VERTEX
  8
gg1
 10
0.235000
 20
0.297500
  0
VERTEX
  8
gg1
 10
0.235000
 20
0.312500
  0
SEQEND
  8
gg1
  0
POLYLINE
  8
gg1
 62
1
 40
0.000000
 41
0.000000
 66
  1
  0
VERTEX
  8
gg1
 10
0.257500
 20
0.340000
  0
VERTEX
  8
gg1
 10
0.272500
 20
0.340000
  0
SEQEND
  8
gg1
  0
POLYLINE
  8
gg1
 62
1
 40
0.000000
 41
0.000000
 66
  1
  0
VERTEX
  8
gg1
 10
0.265000
 20
0.332500
  0
VERTEX
  8
gg1
 10
0.265000
 20
0.347500
  0
SEQEND
  8
gg1
  0
POLYLINE
  8
gg1
 62
1
 40
0.000000
 41
0.000000
 66
  1
  0
VERTEX
  8
gg1
 10
0.227500
 20
0.380000
  0
VERTEX
  8
gg1
 10
0.242500
 20
0.380000
  0
SEQEND
  8
gg1
  0
POLYLINE
  8
gg1
 62
1
 40
0.000000
 41
0.000000
 66
  1
  0
VERTEX
  8
gg1
 10
0.235000
 20
0.372500
  0
VERTEX
  8
gg1
 10
0.235000
 20
0.387500
  0
SEQEND
  8
gg1
  0
POLYLINE
  8
gg1
 62
1
 40
0.000000
 41
0.000000
 66
  1
  0
VERTEX
  8
gg1
 10
0.257500
 20
0.420000
  0
VERTEX
  8
gg1
 10
0.272500
 20
0.420000
  0
SEQEND
  8
gg1
  0
POLYLINE
  8
gg1
 62
1
 40
0.000000
 41
0.000000
 66
  1
  0
VERTEX
  8
gg1
 10
0.265000
 20
0.412500
  0
VERTEX
  8
gg1
 10
0.265000
 20
0.427500
  0
SEQEND
  8
gg1
  0
POLYLINE
  8
gg1
 62
1
 40
0.000000
 41
0.000000
 66
  1
  0
VERTEX
  8
gg1
 10
0.227500
 20
0.455000
  0
VERTEX
  8
gg1
 10
0.242500
 20
0.455000
  0
SEQEND
  8
gg1
  0
POLYLINE
  8
gg1
 62
1
 40
0.000000
 41
0.000000
 66
  1
  0
VERTEX
  8
gg1
 10
0.235000
 20
0.447500
  0
VERTEX
  8
gg1
 10
0.235000
 20
0.462500
  0
SEQEND
  8
gg1
  0
POLYLINE
  8
gg1
 62
1
 40
0.000000
 41
0.000000
 66
  1
  0
VERTEX
  8
gg1
 10
0.257500
 20
0.490000
  0
VERTEX
  8
gg1
 10
0.272500
 20
0.490000
  0
SEQEND
  8
gg1
  0
POLYLINE
  8
gg1
 62
1
 40
0.000000
 41
0.000000
 66
  1
  0
VERTEX
  8
gg1
 10
0.265000
 20
0.482500
  0
VERTEX
  8
gg1
 10
0.265000
 20
0.497500
  0
SEQEND
  8
gg1
  0
POLYLINE
  8
gg1
 62
1
 40
0.000000
 41
0.000000
 66
  1
  0
VERTEX
  8
gg1
 10
0.227500
 20
0.530000
  0
VERTEX
  8
gg1
 10
0.242500
 20
0.530000
  0
SEQEND
  8
gg1
  0
POLYLINE
  8
gg1
 62
1
 40
0.000000
 41
0.000000
 66
  1
  0
VERTEX
  8
gg1
 10
0.235000
 20
0.522500
  0
VERTEX
  8
gg1
 10
0.235000
 20
0.537500
  0
SEQEND
  8
gg1
  0
POLYLINE
  8
gg1
 62
1
 40
0.000000
 41
0.000000
 66
  1
  0
VERTEX
  8
gg1
 10
0.257500
 20
0.565000
  0
VERTEX
  8
gg1
 10
0.272500
 20
0.565000
  0
SEQEND
  8
gg1
  0
POLYLINE
  8
gg1
 62
1
 40
0.000000
 41
0.000000
 66
  1
  0
VERTEX
  8
gg1
 10
0.265000
 20
0.557500
  0
VERTEX
  8
gg1
 10
0.265000
 20
0.572500
  0
SEQEND
  8
gg1
  0
POLYLINE
  8
gg1
 62
1
 40
0.000000
 41
0.000000
 66
  1
  0
VERTEX
  8
gg1
 10
0.232500
 20
0.625000
  0
VERTEX
  8
gg1
 10
0.247500
 20
0.625000
  0
SEQEND
  8
gg1
  0
POLYLINE
  8
gg1
 62
1
 40
0.000000
 41
0.000000
 66
  1
  0
VERTEX
  8
gg1
 10
0.240000
 20
0.617500
  0
VERTEX
  8
gg1
 10
0.240000
 20
0.632500
  0
SEQEND
  8
gg1
  0
POLYLINE
  8
gg1
 62
1
 40
0.000000
 41
0.000000
 66
  1
  0
VERTEX
  8
gg1
 10
0.187500
 20
0.625000
  0
VERTEX
  8
gg1
 10
0.202500
 20
0.625000
  0
SEQEND
  8
gg1
  0
POLYLINE
  8
gg1
 62
1
 40
0.000000
 41
0.000000
 66
  1
  0
VERTEX
  8
gg1
 10
0.195000
 20
0.617500
  0
VERTEX
  8
gg1
 10
0.195000
 20
0.632500
  0
SEQEND
  8
gg1
  0
POLYLINE
  8
gg1
 62
1
 40
0.000000
 41
0.000000
 66
  1
  0
VERTEX
  8
gg1
 10
0.137500
 20
0.625000
  0
VERTEX
  8
gg1
 10
0.152500
 20
0.625000
  0
SEQEND
  8
gg1
  0
POLYLINE
  8
gg1
 62
1
 40
0.000000
 41
0.000000
 66
  1
  0
VERTEX
  8
gg1
 10
0.145000
 20
0.617500
  0
VERTEX
  8
gg1
 10
0.145000
 20
0.632500
  0
SEQEND
  8
gg1
  0
POLYLINE
  8
gg1
 62
1
 40
0.000000
 41
0.000000
 66
  1
  0
VERTEX
  8
gg1
 10
0.117500
 20
0.755000
  0
VERTEX
  8
gg1
 10
0.132500
 20
0.755000
  0
SEQEND
  8
gg1
  0
POLYLINE
  8
gg1
 62
1
 40
0.000000
 41
0.000000
 66
  1
  0
VERTEX
  8
gg1
 10
0.125000
 20
0.747500
  0
VERTEX
  8
gg1
 10
0.125000
 20
0.762500
  0
SEQEND
  8
gg1
  0
POLYLINE
  8
gg1
 62
1
 40
0.000000
 41
0.000000
 66
  1
  0
VERTEX
  8
gg1
 10
0.167500
 20
0.755000
  0
VERTEX
  8
gg1
 10
0.182500
 20
0.755000
  0
SEQEND
  8
gg1
  0
POLYLINE
  8
gg1
 62
1
 40
0.000000
 41
0.000000
 66
  1
  0
VERTEX
  8
gg1
 10
0.175000
 20
0.747500
  0
VERTEX
  8
gg1
 10
0.175000
 20
0.762500
  0
SEQEND
  8
gg1
  0
POLYLINE
  8
gg1
 62
1
 40
0.000000
 41
0.000000
 66
  1
  0
VERTEX
  8
gg1
 10
0.212500
 20
0.755000
  0
VERTEX
  8
gg1
 10
0.227500
 20
0.755000
  0
SEQEND
  8
gg1
  0
POLYLINE
  8
gg1
 62
1
 40
0.000000
 41
0.000000
 66
  1
  0
VERTEX
  8
gg1
 10
0.220000
 20
0.747500
  0
VERTEX
  8
gg1
 10
0.220000
 20
0.762500
  0
SEQEND
  8
gg1
  0
POLYLINE
  8
gg1
 62
1
 40
0.000000
 41
0.000000
 66
  1
  0
VERTEX
  8
gg1
 10
0.267500
 20
0.755000
  0
VERTEX
  8
gg1
 10
0.282500
 20
0.755000
  0
SEQEND
  8
gg1
  0
POLYLINE
  8
gg1
 62
1
 40
0.000000
 41
0.000000
 66
  1
  0
VERTEX
  8
gg1
 10
0.275000
 20
0.747500
  0
VERTEX
  8
gg1
 10
0.275000
 20
0.762500
  0
SEQEND
  8
gg1
  0
POLYLINE
  8
gg1
 62
1
 40
0.000000
 41
0.000000
 66
  1
  0
VERTEX
  8
gg1
 10
0.332500
 20
0.755000
  0
VERTEX
  8
gg1
 10
0.347500
 20
0.755000
  0
SEQEND
  8
gg1
  0
POLYLINE
  8
gg1
 62
1
 40
0.000000
 41
0.000000
 66
  1
  0
VERTEX
  8
gg1
 10
0.340000
 20
0.747500
  0
VERTEX
  8
gg1
 10
0.340000
 20
0.762500
  0
SEQEND
  8
gg1
  0
POLYLINE
  8
gg1
 62
1
 40
0.000000
 41
0.000000
 66
  1
  0
VERTEX
  8
gg1
 10
0.417500
 20
0.040000
  0
VERTEX
  8
gg1
 10
0.432500
 20
0.040000
  0
SEQEND
  8
gg1
  0
POLYLINE
  8
gg1
 62
1
 40
0.000000
 41
0.000000
 66
  1
  0
VERTEX
  8
gg1
 10
0.425000
 20
0.032500
  0
VERTEX
  8
gg1
 10
0.425000
 20
0.047500
  0
SEQEND
  8
gg1
  0
POLYLINE
  8
gg1
 62
1
 40
0.000000
 41
0.000000
 66
  1
  0
VERTEX
  8
gg1
 10
0.467500
 20
0.040000
  0
VERTEX
  8
gg1
 10
0.482500
 20
0.040000
  0
SEQEND
  8
gg1
  0
POLYLINE
  8
gg1
 62
1
 40
0.000000
 41
0.000000
 66
  1
  0
VERTEX
  8
gg1
 10
0.475000
 20
0.032500
  0
VERTEX
  8
gg1
 10
0.475000
 20
0.047500
  0
SEQEND
  8
gg1
  0
POLYLINE
  8
gg1
 62
1
 40
0.000000
 41
0.000000
 66
  1
  0
VERTEX
  8
gg1
 10
0.117500
 20
0.070000
  0
VERTEX
  8
gg1
 10
0.132500
 20
0.070000
  0
SEQEND
  8
gg1
  0
POLYLINE
  8
gg1
 62
1
 40
0.000000
 41
0.000000
 66
  1
  0
VERTEX
  8
gg1
 10
0.125000
 20
0.062500
  0
VERTEX
  8
gg1
 10
0.125000
 20
0.077500
  0
SEQEND
  8
gg1
  0
POLYLINE
  8
gg1
 62
1
 40
0.000000
 41
0.000000
 66
  1
  0
VERTEX
  8
gg1
 10
0.152500
 20
0.040000
  0
VERTEX
  8
gg1
 10
0.167500
 20
0.040000
  0
SEQEND
  8
gg1
  0
POLYLINE
  8
gg1
 62
1
 40
0.000000
 41
0.000000
 66
  1
  0
VERTEX
  8
gg1
 10
0.160000
 20
0.032500
  0
VERTEX
  8
gg1
 10
0.160000
 20
0.047500
  0
SEQEND
  8
gg1
  0
POLYLINE
  8
gg1
 62
1
 40
0.000000
 41
0.000000
 66
  1
  0
VERTEX
  8
gg1
 10
0.477500
 20
0.100000
  0
VERTEX
  8
gg1
 10
0.492500
 20
0.100000
  0
SEQEND
  8
gg1
  0
POLYLINE
  8
gg1
 62
1
 40
0.000000
 41
0.000000
 66
  1
  0
VERTEX
  8
gg1
 10
0.485000
 20
0.092500
  0
VERTEX
  8
gg1
 10
0.485000
 20
0.107500
  0
SEQEND
  8
gg1
  0
ENDSEC
  0
EOF
